<svg data-name="Layer 1" xmlns="http://www.w3.org/2000/svg" viewBox="0 0 950.39 950.37"><path d="M.05 779.2V622.74c0-5.73 1.26-10.62 6.78-13.37s10.31-1.18 14.74 2.54c30.23 25.31 55.06 55.08 73.32 90.06 12 23 11.52 47.44 6.22 72.1-5.35 24.89-15.51 48-25.85 71.12-5.23 11.68-10.41 23.41-14.92 35.37a37.8 37.8 0 00-1.91 14.66c.31 7.1 5.43 9.66 11.5 5.88 3.6-2.24 6.6-5.53 9.62-8.59 7.6-7.7 14.72-15.91 22.64-23.25 21.48-19.88 47.65-27.47 76.32-28.66 19.51-.81 38.24 1.55 55.59 11 28.42 15.45 43.32 40.37 49.38 71.33.8 4.08 1.33 8.22 1.79 12.35 1.08 9.56-3.6 15-13.25 15.06-15.16.13-30.33 0-45.49 0H17.08c-1.67 0-3.34.06-5-.05-7.29-.51-11.55-4.77-12-12.14-.17-3 0-6 0-9Q.05 854.18.05 779.2zm950.34.13v155.48c0 11.62-3.9 15.52-15.63 15.52h-255c-11.24 0-15.49-4.5-14.35-15.77 3.22-31.94 15.43-59.09 42.54-78 15.47-10.77 32.93-15.82 51.65-16.16 19.75-.36 39.19 1.64 57.78 9.11 20.43 8.2 35.64 23 50 38.92 3.55 4 7 8.15 11.26 11.24 2.45 1.8 7.06 3.08 9.39 1.93s4.33-5.64 4.21-8.58a48.63 48.63 0 00-3.38-16.44c-8.67-20.88-18.2-41.41-26.78-62.33-8.93-21.79-15.51-44.25-16.08-68.1a94.67 94.67 0 0112.79-50.64 310.62 310.62 0 0168.66-82.54 43.32 43.32 0 013.58-2.72 11.89 11.89 0 0112.77-.95c4.42 2.24 6.52 6.06 6.54 11v31.5q.05 63.79.05 127.53zM.04 163.3v-148C.04 4.04 4.11-.01 15.37-.01h255c13.29 0 16.4 3.42 14.33 16.62-5.14 32.84-18.28 61.88-42.6 85-6.4 6.07-14.59 10.31-22.16 15.06a18.91 18.91 0 01-7.61 2.19c-8.32 1-12.19-3.46-10.33-11.71 1.35-6 3.24-11.91 4.08-18 1.69-12.25 1-24.35-5.49-35.35-8.8-14.8-22.9-20.14-39-19.53-43.78 1.66-82.89 42-84 85.87-.68 28.05 17.75 49.41 46.78 53.59 7.86 1.13 15.92 1 23.89 1.26 7.77.25 10.82 3 11.46 10.75 2.54 30.86-19.66 54.34-51.77 55-22.66.45-40.14-9-53.29-27.1-3.82-5.25-7.32-10.73-11.28-15.87-1-1.34-3.6-2.81-4.79-2.37a5.67 5.67 0 00-2.85 4.65c.8 6.35 1.44 12.92 3.67 18.83a79.29 79.29 0 0010 17.81c7.53 10.49 8.34 21.45 3.86 33.12-7.4 19.24-19.84 34.9-34.84 48.71a20.14 20.14 0 01-4.16 2.73C5.38 326.02.13 322.92.12 312.83Q.01 238.04.04 163.3zm950.34.22v149c0 10.61-5.75 14.12-14.61 8.22-5.45-3.63-10.24-8.49-14.66-13.4-10.86-12.08-20.05-25.24-24.94-41-3.11-10.05-1.79-19.13 3.93-28.06a168.58 168.58 0 0012.48-23.21c1.85-4.22 2.06-9.3 2.26-14 .08-1.93-1.84-4-2.85-5.93-1.87 1.12-4.27 1.82-5.51 3.43-5.3 6.84-9.9 14.23-15.39 20.89-17.06 20.68-48.48 27.4-72.73 16-21-9.85-29.1-31.81-27.64-50.12.59-7.42 3.93-10.31 11.43-10.26 11.18.08 22.29 0 33.14-3.35 28.53-8.87 41.91-32.38 36.2-63.88-6.31-34.85-36.21-65.65-71.07-72.23a67.08 67.08 0 00-23.75-.09c-20.06 3.59-32.88 19.52-32.76 40.59 0 9 2.09 18.08 3.57 27.06.78 4.74 3.13 9.75-.86 13.71-4.16 4.14-9.49 2.29-14.12.56-13.46-5-24.07-14-33.1-25a151.42 151.42 0 01-34.06-79.11C664.2 4.28 667.97.05 676.97.04h260.42c8.5 0 13 4.67 13 13.57q.05 75 0 150zM228.55 557.37v6.26c0 18-.1 36 .08 54 0 4.13-1.26 5.75-5.42 5.44a64.66 64.66 0 00-11 0c-5 .49-6.67-1.28-6.62-6.4.23-23.66.06-47.32.15-71 0-3.79.09-6.75-4.71-8.22-4.45-1.37-8.37-10.52-7.31-15.3a4.06 4.06 0 013-2.37c9.14-.46 18.3-.84 27.45-.89 5 0 8.06 3.25 10.38 7.45q14.51 26.21 29.19 52.33a16.58 16.58 0 003.81 4.91v-4.67c0-18.16.1-36.33-.07-54.49 0-3.76 1.18-5 4.87-4.83a105.86 105.86 0 0013 0c3.8-.24 4.84 1.22 4.8 4.89-.17 17.33-.42 34.66 0 52 .34 13.93 1.68 27.83 2.3 41.75a6 6 0 01-2.73 4.48c-8.69 4.81-20.19 2.89-26.14-5.21-5.29-7.2-9.46-15.23-13.91-23-6.28-11-12.37-22.07-18.56-33.1-.53-.95-1.15-1.83-2.56-4.03zm79.64-165.66c-8.94-2.09-11.27-8.6-11.62-16.22-.05-1.17 1.74-3.44 2.74-3.48 13.13-.47 26.28-.85 39.42-.78 9.27 0 14.77 5.16 17.79 13.93 8.17 23.72 16.66 47.32 25.19 70.91a110.47 110.47 0 006.54 14.5c1.56 2.92.68 4.12-1.89 5.35a20.75 20.75 0 01-28.63-11.59c-3.9-11-3.9-11-15.66-11-8 0-16 .19-24-.05-4.41-.14-7.17.9-8.17 5.73-.83 4-2.85 7.82-3.84 11.83-.91 3.68-3 4.68-6.49 4.55-4.66-.18-9.32 0-14 0-5.84 0-6.55-1-4.62-6.42q13-36.65 26-73.29c.36-1.11.68-2.22 1.24-3.97zm40.51 40.66c-4.25-13.4-8.24-26.18-12.44-38.89a4.36 4.36 0 00-3.22-2.41c-.85 0-2.19 1.65-2.58 2.81-3.21 9.6-6.25 19.26-9.33 28.91-1 3.09-1.92 6.2-3 9.58h30.53zm140.69-23.69c0 10.16.07 20.32 0 30.47-.17 20.11-10.32 32.51-30 36.34a69 69 0 01-31.66-1.17c-15.41-4.22-24-15.55-24.09-32-.13-15.32-.07-30.64 0-46 0-2.85-.13-4.74-3.62-5.85-5.59-1.77-9.65-10-8.43-16a4 4 0 012.8-2.52c6.63-.5 13.29-.93 19.93-.9 8.48 0 12.41 4.21 12.43 12.74v48.46a49.34 49.34 0 00.48 7c1.72 11.81 8.53 17.27 20.68 16.7 11-.52 17.59-7.18 17.73-18.75.24-19.81.2-39.63 0-59.44-.05-4.6 1.27-6.35 5.95-6a90.86 90.86 0 0013 0c3.79-.23 4.94 1.35 4.9 4.94-.19 10.67-.1 21.33-.1 31.98zm218.16 16.6v38.41c0 11.64 0 11.64-11.54 11.64s-11.62 0-11.62-11.5v-67.5c0-2.91-.26-4.73-3.7-5.84-5.59-1.8-9.67-9.94-8.52-16a4 4 0 012.84-2.52c6.64-.5 13.3-.9 20-.9 7.9 0 12.51 4.94 12.54 13v33.53c1.63-1.92 2.69-3 3.61-4.28 9.13-12.31 18.29-24.59 27.32-37 2.26-3.1 4.86-4.7 8.79-4.53 5.16.22 10.33 0 15.5.11 1.37 0 3.68.54 3.87 1.27a5.85 5.85 0 01-1.13 4.33c-9.76 13.09-19.55 26.14-29.55 39-2.3 3-2.66 5-.18 8.17 11.68 14.76 23.05 29.75 34.71 44.53 2.1 2.66 1.39 3.93-1 5.46-7.74 4.88-20.62 3.77-27.2-3.58-6.3-7-11.6-15-17.18-22.64s-10.78-15.21-16.19-22.81a3.74 3.74 0 00-1.37-.35zm-502.71-8.76c8.52-11.47 17.58-22.59 25.39-34.53 5.17-7.91 11.14-11.79 20.54-10.21 2.27.38 4.68-.14 7 .12a34.65 34.65 0 015.44 1.48c-.76 1.74-1.22 3.69-2.32 5.17-9.46 12.68-18.87 25.41-28.68 37.82-2.78 3.51-2.42 5.64.13 8.91 12 15.36 23.68 30.91 35.86 46.89-3.56 4.53-8.93 5.49-14.66 5.3-9.08-.3-15.59-5.06-20.63-12.27q-12.3-17.61-24.69-35.16a13.25 13.25 0 00-4.48-4.39v18.19c0 8.83-.17 17.67.07 26.49.11 4.11-1.61 5.23-5.34 5a125 125 0 00-13 0c-3.92.22-5.17-1.27-5.15-5.18.14-24.33 0-48.66.11-73 0-3.32 0-5.74-4.19-7-5.19-1.59-9.15-10.32-7.9-15.92a4.12 4.12 0 013-2.33c6.31-.5 12.63-.86 19-.92 8.66-.08 13.31 4.54 13.39 13.16.09 10.62 0 21.24 0 31.86zm502.19 140.85c0 10.33.15 20.66 0 31-.33 18.81-10.52 30.87-29 34.55a69.63 69.63 0 01-32.63-.95c-14.85-4.12-23.43-14.64-23.85-30.08-.43-15.65-.2-31.32-.13-47 0-3.34 0-5.77-4.2-7-5.14-1.56-9.65-11.52-7.91-16.27.35-.94 2.19-1.8 3.4-1.88 6.81-.43 13.64-.84 20.45-.82 7.18 0 11.33 4.42 11.36 11.7.06 15.66 0 31.32 0 47 0 2.16 0 4.33.12 6.49.78 15.38 12.37 23.31 27 18.52 7.41-2.42 11.77-9 11.81-18.38.08-19.49.17-39-.08-58.48-.06-4.84 1.39-6.6 6.21-6.15a63.68 63.68 0 0011.48 0c4.51-.4 6.17 1.05 6 5.79-.32 10.65-.1 21.32-.1 32zm-589.17-79.85c-5-1-10.22-1.53-15-3.23-8.69-3.08-12.66-10.62-11.6-19.79.44-3.82 1.93-4.47 5.27-2.92a45.36 45.36 0 0030.14 3.36c4.43-1 8.29-3 9.06-8s-2-8.33-6-10.52c-7.44-4.05-15.16-7.58-22.53-11.75-6.89-3.9-11.92-9.52-13.66-17.58-3.77-17.44 4.94-30.74 23.34-34.87 11.15-2.51 22.44-2.32 33.74-.47 3.53.58 4.42 2.28 3.87 5.46q-1.06 6.14-1.93 12.32c-.35 2.48-1.39 3-4 2.85a187.81 187.81 0 00-22.31-.42c-4.22.22-8.2 2.3-9 7.23s2.08 7.9 5.85 10 7.75 3.8 11.62 5.71c4 2 8.23 3.69 12 6.09 19.2 12.25 18 39.18-2.1 50-8.43 4.36-17.43 5.61-26.76 6.53zm251.54 62.51c-5.78-.47-11.05-1.32-16.3-1.21a42.67 42.67 0 00-13.62 2.14c-6 2.21-7.13 9.05-2.3 13.29 3.05 2.69 6.92 4.52 10.59 6.43 5 2.6 10.42 4.51 15.23 7.41 20 12.1 19.57 39.39-1.06 50.43-12.34 6.61-25.81 7.58-39.32 4.26-9.93-2.45-14.53-9.43-14.07-19.57.23-4.89 1.3-5.64 5.82-3.72 9.1 3.87 18.43 5.6 28.26 3.47 4.94-1.07 9.62-2.8 10.52-8.46.86-5.41-2.79-8.71-7-11-5.84-3.17-11.94-5.85-17.85-8.9-13.81-7.15-19.12-16.31-17.89-30.38 1-11.17 7-18.52 17.29-22.28 13.33-4.89 27-4.85 40.87-2.34 2.77.5 3.66 1.71 3.22 4.4-.86 5.08-1.54 10.19-2.39 16.03zm226.92-89.72c2.18.74 4 1.26 5.82 2a45.13 45.13 0 0028.81 2.51c4-1 7.62-2.87 8.56-7.38 1-5-1.57-8.48-5.55-10.76-5.18-3-10.63-5.45-16-8.13-8.94-4.49-17.28-9.65-20.31-20.06-4.75-16.37 3.4-30.88 20.11-35.55 12.24-3.42 24.66-3.26 37.12-1.14 2.94.5 4 1.9 3.45 4.8q-1.08 6.14-1.85 12.34c-.36 2.94-1.56 3.59-4.66 3.34a169.44 169.44 0 00-21.81-.43c-4.28.21-8.23 2.43-9.11 7.21s2 8 5.91 10c5.88 3.07 12 5.74 18 8.63 16.48 8 22.76 21.21 17.67 37a25.71 25.71 0 01-11.94 14.84 53.27 53.27 0 01-42.35 5.24c-10.88-3.11-15.38-12.56-11.87-24.46zm224.01-34.58c4.17-9.24 8.14-18.15 12.22-27a77 77 0 015.2-10.2 20.21 20.21 0 0124.2-7.81c3.23 1.18 4.38 2.32 2.38 6.13-10.89 20.75-21.42 41.7-31.95 62.63a12.42 12.42 0 00-.79 5.3c-.08 8.66-.17 17.33 0 26 .08 3.55-1.21 4.73-4.65 4.6-4.66-.19-9.33-.1-14 0-3.33.1-4.76-1.09-4.66-4.64.22-7.16-.2-14.34.15-21.48a32.18 32.18 0 00-3.72-16.22c-8.79-17.91-17.27-36-25.83-54-2.89-6.09-2.16-7.19 4.57-7.23 16.62-.1 16.54-1.08 23.62 15.29 3.89 9 8 17.89 12.09 26.82a18.82 18.82 0 001.17 1.81zm-56.27 103.94c11 0 22 .24 33-.11 4.79-.15 6.18 1.58 5.77 6a51.4 51.4 0 000 9.48c.4 4.31-1.53 5.5-5.51 5.34-5.65-.22-11.33.13-17-.09-3.77-.14-4.85 1.35-4.81 5 .16 15.81 0 31.63.09 47.45 0 9.1 3 12.07 11.87 12.23 5.44.09 6.22 1.26 4.36 6.58-3.17 9.09-12 13.83-23.46 12.63-9.39-1-14.93-6.69-15.64-17.56-.7-10.61-.54-21.29-.63-31.94-.09-9.82-.13-19.65 0-29.47.06-3.69-1.3-5-5-4.9-6 .21-12 0-18 .06-3.1 0-4.61-1.1-4.46-4.42.18-4 .17-8 0-12-.14-3.28 1.23-4.38 4.42-4.34 11.69.13 23.34.06 35 .06zm-202.01 0c11.16 0 22.32.12 33.47-.06 3.77-.06 5.58.91 5.25 5a80.28 80.28 0 000 11c.2 3.43-1.1 4.84-4.56 4.76-6-.14-12 .09-18-.06-3.34-.08-4.76 1-4.73 4.57.14 16.15 0 32.31.1 48.46.06 8.59 3.23 11.52 12 11.65 5.2.07 6 1.27 4.37 6.24-3.16 9.4-12.06 14.25-23.72 12.93-9.33-1.05-14.91-6.86-15.52-17.69-.67-11.79-.51-23.63-.62-35.44-.08-8.16-.25-16.33.07-24.48.18-4.65-1-6.68-6.06-6.29-5.63.43-11.32 0-17 .1-3.17.06-4.57-1.12-4.42-4.41.18-4 .21-8 0-12-.16-3.32 1.24-4.36 4.41-4.33 11.64.11 23.3.04 34.96.05zm-15.73-147.83c11.15 0 22.31.15 33.46-.08 3.88-.08 5.52 1.12 5.31 5.07s-.1 7.66 0 11.48c.06 3.15-1.31 4.48-4.52 4.41-6-.14-12 .1-18-.09-3.51-.11-5.13.86-5.08 4.74.19 15.48-.07 31 .19 46.44.18 11.15 2.48 13.28 13.72 13.33 3 0 3.74 1.49 3.18 3.61-.74 2.83-1.67 5.85-3.4 8.12-5.68 7.42-13.61 9-22.37 7.42-8.19-1.44-12.18-6.92-13.43-14.69a67.94 67.94 0 01-.93-10.4c-.1-17.64-.19-35.29 0-52.93.05-4.39-1.27-5.92-5.67-5.66-5.64.33-11.32 0-17 .12-3.33.1-4.72-.95-4.84-4.52-.52-16.37-.62-16.36 15.86-16.36h23.47zM423.26 519.67c11.16 0 22.32.17 33.48-.09 4.08-.09 5.28 1.37 5 5.2a97.61 97.61 0 000 11.49c.16 3.1-1.23 4.13-4.1 4.1-6.33-.06-12.66.08-19 0-2.94-.06-4.18.93-4.16 4 .11 16.32-.06 32.65.12 49 .1 8.69 3.26 11.51 12 11.62 5.2.06 6 1.21 4.39 6.2-3 9.32-12.27 14.4-23.69 13-9.51-1.13-15-7.11-15.63-18.19s-.5-22-.6-33c-.09-9-.19-18 .06-27 .12-4.24-1.08-6.08-5.62-5.8-5.47.34-11-.05-16.48.14-3.74.13-5.64-1-5.37-5.11a81.18 81.18 0 000-10.49c-.24-3.84 1.09-5.3 5.13-5.22 11.49.3 22.98.15 34.47.15zm-267.55 19.74c-8.82-1.92-11.42-7.6-12-16.61-.06-1 1.71-2.9 2.73-3 7.12-.53 14.28-.95 21.42-.9 6.61 0 11.08 5 11.15 12.15.13 12.48.07 25 .07 37.44 0 16.31-.14 32.62.06 48.92.05 4.33-1.21 6-5.67 5.65a80.86 80.86 0 00-12.47 0c-4.27.3-5.37-1.54-5.35-5.53.14-23.79.08-47.59.08-71.39-.02-2.14-.02-4.28-.02-6.73zm327.35.19c-8.4-3-12.32-8.43-12.11-16.73 0-1.08 1.71-3 2.73-3 7.29-.54 14.62-1 21.92-.89 6.41.13 10.86 5.15 10.89 12 .11 29.29 0 58.59.09 87.88 0 3-1.08 4.28-4.08 4.21-4.49-.1-9-.29-13.48.05s-6.12-1.24-6.06-5.88c.22-17.14.09-34.29.1-51.43V539.6zM836.45 340c2.83 0 5.66-.14 8.48 0 3.75.22 4.92 2.24 2.76 5.19a409.28 409.28 0 01-14.09 18.08 6.54 6.54 0 01-4.28 1.95c-4.31.25-8.64.11-13 .07-3.23 0-4.24-1.56-2.78-4.49 2.81-5.65 5.36-11.46 8.64-16.82 1.16-1.9 4-3.24 6.29-3.85 2.53-.61 5.32-.13 7.98-.13z"/></svg>