<?xml version="1.0" encoding="UTF-8" standalone="no"?>
<svg
   xmlns:dc="http://purl.org/dc/elements/1.1/"
   xmlns:cc="http://creativecommons.org/ns#"
   xmlns:rdf="http://www.w3.org/1999/02/22-rdf-syntax-ns#"
   xmlns:svg="http://www.w3.org/2000/svg"
   xmlns="http://www.w3.org/2000/svg"
   xmlns:sodipodi="http://sodipodi.sourceforge.net/DTD/sodipodi-0.dtd"
   xmlns:inkscape="http://www.inkscape.org/namespaces/inkscape"
   version="1.1"
   id="Layer_1"
   x="0px"
   y="0px"
   viewBox="0 0 600 600"
   xml:space="preserve"
   sodipodi:docname="logo.svg"
   width="600"
   height="600"
   inkscape:version="1.0.2 (e86c870879, 2021-01-15, custom)"><metadata
   id="metadata55"><rdf:RDF><cc:Work
       rdf:about=""><dc:format>image/svg+xml</dc:format><dc:type
         rdf:resource="http://purl.org/dc/dcmitype/StillImage" /><dc:title></dc:title></cc:Work></rdf:RDF></metadata><defs
   id="defs53" /><sodipodi:namedview
   pagecolor="#ffffff"
   bordercolor="#666666"
   borderopacity="1"
   objecttolerance="10"
   gridtolerance="10"
   guidetolerance="10"
   inkscape:pageopacity="0"
   inkscape:pageshadow="2"
   inkscape:window-width="1920"
   inkscape:window-height="1137"
   id="namedview51"
   showgrid="false"
   inkscape:zoom="0.86227545"
   inkscape:cx="668"
   inkscape:cy="300"
   inkscape:window-x="1912"
   inkscape:window-y="-8"
   inkscape:window-maximized="1"
   inkscape:current-layer="Layer_1" />
<style
   type="text/css"
   id="style2">
	.st0{fill:#FFFFFF;}
	.st1{fill:#FF4D4F;}
	.st2{fill:#F8C752;}
	.st3{fill:#2D9589;}
	.st4{fill:#3ED0C0;}
	.st5{fill:#4297DD;}
	.st6{fill:#2E3D99;}
	.st7{fill:#7365BE;}
	.st8{fill:#A63242;}
	.st9{opacity:0.95;fill:#FFFFFF;}
	.st10{fill:#262626;}
</style>
<g
   id="g20"
   transform="matrix(1.4814417,0,0,1.4814417,-144.40101,-144.83258)">
	<path
   class="st1"
   d="M 492.759,247.81 C 469.213,162.112 391.236,102.004 302.569,100.831 v 96.043 c 45.563,1.16 85.467,32.238 97.594,76.376 12.126,44.137 -6.298,91.241 -44.872,115.517 l 49.07,82.562 c 75.622,-46.31 111.944,-137.82 88.398,-223.519 z"
   id="path4" />
	<path
   class="st2"
   d="m 297.289,196.874 v -96.043 c -14.843,0.196 -29.645,2.049 -44.077,5.516 l 23.668,93.081 c 6.698,-1.522 13.542,-2.379 20.409,-2.554 z"
   id="path6" />
	<path
   class="st3"
   d="m 203.723,125.477 47.313,83.58 c 6.588,-3.512 13.54,-6.305 20.725,-8.327 l -23.668,-93.081 c -15.447,4.146 -30.349,10.133 -44.37,17.828 z"
   id="path8" />
	<path
   class="st4"
   d="m 246.44,211.658 -47.313,-83.58 c -22.133,12.909 -41.295,29.679 -57.025,49.907 l 76.572,57.973 c 7.763,-9.739 17.084,-17.896 27.766,-24.3 z"
   id="path10" />
	<path
   class="st5"
   d="m 138.915,182.196 c -16.696,22.683 -28.577,49.058 -34.5,76.593 l 94.159,18.93 c 3.07,-13.453 8.873,-26.336 16.913,-37.549 z"
   id="path12" />
	<path
   class="st6"
   d="m 118.711,385.345 86.491,-41.756 c -8.53,-18.906 -11.228,-40.259 -7.669,-60.692 l -94.159,-18.93 c -7.638,40.834 -2.218,83.727 15.337,121.378 z"
   id="path14" />
	<path
   class="st7"
   d="m 220.973,484.517 36.752,-88.732 C 236.04,386.154 218.35,369.447 207.496,348.346 l -86.491,41.755 c 21.136,42.346 56.486,75.733 99.968,94.416 z"
   id="path16" />
	<path
   class="st8"
   d="m 264.623,398.558 c -0.671,-0.242 -1.345,-0.494 -2.019,-0.753 l -36.752,88.732 c 2.037,0.812 4.099,1.595 6.155,2.338 55.65,20.097 116.656,14.667 167.815,-14.848 l -49.07,-82.561 c -26.364,14.789 -57.601,17.393 -86.129,7.092 z"
   id="path18" />
</g>

</svg>
